<mxfile host="app.diagrams.net" modified="2021-11-08T21:47:37.930Z" agent="5.0 (Macintosh; Intel Mac OS X 10_15_7) AppleWebKit/605.1.15 (KHTML, like Gecko) Version/13.1.3 Safari/605.1.15" etag="RNU6MD1BR3UHktPTGu9c" version="15.7.0" type="github">
  <diagram id="bmeY-XaDgncg5FZ9bMC-" name="Page-1">
    <mxGraphModel dx="1395" dy="995" grid="1" gridSize="10" guides="1" tooltips="1" connect="1" arrows="1" fold="1" page="1" pageScale="1" pageWidth="827" pageHeight="1169" math="0" shadow="0">
      <root>
        <mxCell id="0" />
        <mxCell id="1" parent="0" />
        <mxCell id="9Ihj8CTsWYgidSoW0jgp-1" value="" style="verticalLabelPosition=bottom;html=1;verticalAlign=top;align=center;strokeColor=none;fillColor=#00BEF2;shape=mxgraph.azure.mobile;pointerEvents=1;" vertex="1" parent="1">
          <mxGeometry x="200" y="100" width="35" height="50" as="geometry" />
        </mxCell>
        <mxCell id="9Ihj8CTsWYgidSoW0jgp-2" value="" style="pointerEvents=1;shadow=0;dashed=0;html=1;strokeColor=none;fillColor=#4495D1;labelPosition=center;verticalLabelPosition=bottom;verticalAlign=top;align=center;outlineConnect=0;shape=mxgraph.veeam.laptop;" vertex="1" parent="1">
          <mxGeometry x="590" y="106" width="58.4" height="44" as="geometry" />
        </mxCell>
        <mxCell id="9Ihj8CTsWYgidSoW0jgp-4" value="" style="rounded=0;whiteSpace=wrap;html=1;" vertex="1" parent="1">
          <mxGeometry x="40" y="200" width="760" height="200" as="geometry" />
        </mxCell>
        <mxCell id="9Ihj8CTsWYgidSoW0jgp-5" value="" style="rounded=0;whiteSpace=wrap;html=1;" vertex="1" parent="1">
          <mxGeometry x="40" y="440" width="760" height="200" as="geometry" />
        </mxCell>
        <mxCell id="9Ihj8CTsWYgidSoW0jgp-6" value="" style="rounded=0;whiteSpace=wrap;html=1;" vertex="1" parent="1">
          <mxGeometry x="40" y="680" width="760" height="200" as="geometry" />
        </mxCell>
        <mxCell id="9Ihj8CTsWYgidSoW0jgp-24" style="edgeStyle=orthogonalEdgeStyle;rounded=0;orthogonalLoop=1;jettySize=auto;html=1;exitX=0.5;exitY=0;exitDx=0;exitDy=0;entryX=0.5;entryY=1;entryDx=0;entryDy=0;entryPerimeter=0;" edge="1" parent="1" source="9Ihj8CTsWYgidSoW0jgp-7" target="9Ihj8CTsWYgidSoW0jgp-1">
          <mxGeometry relative="1" as="geometry" />
        </mxCell>
        <mxCell id="9Ihj8CTsWYgidSoW0jgp-7" value="Mobile Transport Booking API" style="rounded=1;whiteSpace=wrap;html=1;" vertex="1" parent="1">
          <mxGeometry x="116.25" y="240" width="202.5" height="120" as="geometry" />
        </mxCell>
        <mxCell id="9Ihj8CTsWYgidSoW0jgp-25" style="edgeStyle=orthogonalEdgeStyle;rounded=0;orthogonalLoop=1;jettySize=auto;html=1;exitX=0.5;exitY=0;exitDx=0;exitDy=0;" edge="1" parent="1" source="9Ihj8CTsWYgidSoW0jgp-10" target="9Ihj8CTsWYgidSoW0jgp-2">
          <mxGeometry relative="1" as="geometry" />
        </mxCell>
        <mxCell id="9Ihj8CTsWYgidSoW0jgp-10" value="Web App Transporting Booking API" style="rounded=1;whiteSpace=wrap;html=1;" vertex="1" parent="1">
          <mxGeometry x="517.95" y="240" width="202.5" height="120" as="geometry" />
        </mxCell>
        <mxCell id="9Ihj8CTsWYgidSoW0jgp-30" style="edgeStyle=orthogonalEdgeStyle;rounded=0;orthogonalLoop=1;jettySize=auto;html=1;exitX=0.5;exitY=0;exitDx=0;exitDy=0;" edge="1" parent="1" source="9Ihj8CTsWYgidSoW0jgp-11">
          <mxGeometry relative="1" as="geometry">
            <mxPoint x="570" y="650" as="targetPoint" />
          </mxGeometry>
        </mxCell>
        <mxCell id="9Ihj8CTsWYgidSoW0jgp-11" value="Retrieve &quot;Fast Go&quot; routes" style="rounded=1;whiteSpace=wrap;html=1;" vertex="1" parent="1">
          <mxGeometry x="517.95" y="720" width="202.5" height="120" as="geometry" />
        </mxCell>
        <mxCell id="9Ihj8CTsWYgidSoW0jgp-29" style="edgeStyle=orthogonalEdgeStyle;rounded=0;orthogonalLoop=1;jettySize=auto;html=1;exitX=0.5;exitY=0;exitDx=0;exitDy=0;" edge="1" parent="1" source="9Ihj8CTsWYgidSoW0jgp-12">
          <mxGeometry relative="1" as="geometry">
            <mxPoint x="260" y="650" as="targetPoint" />
          </mxGeometry>
        </mxCell>
        <mxCell id="9Ihj8CTsWYgidSoW0jgp-12" value="Retrieve &quot;Travel Tip&quot; routes" style="rounded=1;whiteSpace=wrap;html=1;" vertex="1" parent="1">
          <mxGeometry x="116.25" y="720" width="202.5" height="120" as="geometry" />
        </mxCell>
        <mxCell id="9Ihj8CTsWYgidSoW0jgp-26" style="edgeStyle=orthogonalEdgeStyle;rounded=0;orthogonalLoop=1;jettySize=auto;html=1;exitX=0.25;exitY=0;exitDx=0;exitDy=0;entryX=0.303;entryY=1;entryDx=0;entryDy=0;entryPerimeter=0;" edge="1" parent="1" source="9Ihj8CTsWYgidSoW0jgp-13" target="9Ihj8CTsWYgidSoW0jgp-4">
          <mxGeometry relative="1" as="geometry" />
        </mxCell>
        <mxCell id="9Ihj8CTsWYgidSoW0jgp-28" style="edgeStyle=orthogonalEdgeStyle;rounded=0;orthogonalLoop=1;jettySize=auto;html=1;exitX=0.75;exitY=0;exitDx=0;exitDy=0;entryX=0.697;entryY=1;entryDx=0;entryDy=0;entryPerimeter=0;" edge="1" parent="1" source="9Ihj8CTsWYgidSoW0jgp-13" target="9Ihj8CTsWYgidSoW0jgp-4">
          <mxGeometry relative="1" as="geometry" />
        </mxCell>
        <mxCell id="9Ihj8CTsWYgidSoW0jgp-13" value="Retrieve and consolidate routes and schedules" style="rounded=1;whiteSpace=wrap;html=1;" vertex="1" parent="1">
          <mxGeometry x="120" y="480" width="600" height="120" as="geometry" />
        </mxCell>
        <mxCell id="9Ihj8CTsWYgidSoW0jgp-32" style="edgeStyle=orthogonalEdgeStyle;rounded=0;orthogonalLoop=1;jettySize=auto;html=1;exitX=0.5;exitY=0;exitDx=0;exitDy=0;entryX=0.761;entryY=1.01;entryDx=0;entryDy=0;entryPerimeter=0;" edge="1" parent="1" target="9Ihj8CTsWYgidSoW0jgp-6">
          <mxGeometry relative="1" as="geometry">
            <mxPoint x="619.2" y="960" as="sourcePoint" />
          </mxGeometry>
        </mxCell>
        <mxCell id="9Ihj8CTsWYgidSoW0jgp-31" style="edgeStyle=orthogonalEdgeStyle;rounded=0;orthogonalLoop=1;jettySize=auto;html=1;exitX=0.5;exitY=0;exitDx=0;exitDy=0;entryX=0.234;entryY=1;entryDx=0;entryDy=0;entryPerimeter=0;" edge="1" parent="1" target="9Ihj8CTsWYgidSoW0jgp-6">
          <mxGeometry relative="1" as="geometry">
            <mxPoint x="217.5" y="960" as="sourcePoint" />
          </mxGeometry>
        </mxCell>
        <mxCell id="9Ihj8CTsWYgidSoW0jgp-36" style="edgeStyle=orthogonalEdgeStyle;rounded=0;orthogonalLoop=1;jettySize=auto;html=1;exitX=0.5;exitY=0;exitDx=0;exitDy=0;" edge="1" parent="1" source="9Ihj8CTsWYgidSoW0jgp-16">
          <mxGeometry relative="1" as="geometry">
            <mxPoint x="218" y="1090" as="targetPoint" />
          </mxGeometry>
        </mxCell>
        <mxCell id="9Ihj8CTsWYgidSoW0jgp-16" value="" style="image;html=1;image=img/lib/clip_art/computers/Database_128x128.png" vertex="1" parent="1">
          <mxGeometry x="177.5" y="1169" width="80" height="80" as="geometry" />
        </mxCell>
        <mxCell id="9Ihj8CTsWYgidSoW0jgp-37" style="edgeStyle=orthogonalEdgeStyle;rounded=0;orthogonalLoop=1;jettySize=auto;html=1;exitX=0.5;exitY=0;exitDx=0;exitDy=0;entryX=0.5;entryY=1;entryDx=0;entryDy=0;" edge="1" parent="1" source="9Ihj8CTsWYgidSoW0jgp-17" target="9Ihj8CTsWYgidSoW0jgp-35">
          <mxGeometry relative="1" as="geometry" />
        </mxCell>
        <mxCell id="9Ihj8CTsWYgidSoW0jgp-17" value="" style="image;html=1;image=img/lib/clip_art/computers/Database_128x128.png" vertex="1" parent="1">
          <mxGeometry x="579.2" y="1169" width="80" height="80" as="geometry" />
        </mxCell>
        <mxCell id="9Ihj8CTsWYgidSoW0jgp-18" value="Experience API" style="text;html=1;align=center;verticalAlign=middle;resizable=0;points=[];autosize=1;strokeColor=none;fillColor=none;" vertex="1" parent="1">
          <mxGeometry x="40" y="180" width="100" height="20" as="geometry" />
        </mxCell>
        <mxCell id="9Ihj8CTsWYgidSoW0jgp-19" value="Process API" style="text;html=1;align=center;verticalAlign=middle;resizable=0;points=[];autosize=1;strokeColor=none;fillColor=none;" vertex="1" parent="1">
          <mxGeometry x="40" y="420" width="80" height="20" as="geometry" />
        </mxCell>
        <mxCell id="9Ihj8CTsWYgidSoW0jgp-20" value="System API" style="text;html=1;align=center;verticalAlign=middle;resizable=0;points=[];autosize=1;strokeColor=none;fillColor=none;" vertex="1" parent="1">
          <mxGeometry x="40" y="660" width="80" height="20" as="geometry" />
        </mxCell>
        <mxCell id="9Ihj8CTsWYgidSoW0jgp-34" value="&quot;Travel Tip&quot; Booking System" style="rounded=0;whiteSpace=wrap;html=1;" vertex="1" parent="1">
          <mxGeometry x="80" y="960" width="280" height="120" as="geometry" />
        </mxCell>
        <mxCell id="9Ihj8CTsWYgidSoW0jgp-35" value="&quot;Fast Go&quot; Booking System" style="rounded=0;whiteSpace=wrap;html=1;" vertex="1" parent="1">
          <mxGeometry x="479.2" y="960" width="280" height="120" as="geometry" />
        </mxCell>
        <mxCell id="9Ihj8CTsWYgidSoW0jgp-38" value="&quot;Travel Tip&quot; Database" style="text;html=1;align=center;verticalAlign=middle;resizable=0;points=[];autosize=1;strokeColor=none;fillColor=none;" vertex="1" parent="1">
          <mxGeometry x="152.5" y="1270" width="130" height="20" as="geometry" />
        </mxCell>
        <mxCell id="9Ihj8CTsWYgidSoW0jgp-39" value="&quot;Fast Go&quot; Database" style="text;html=1;align=center;verticalAlign=middle;resizable=0;points=[];autosize=1;strokeColor=none;fillColor=none;" vertex="1" parent="1">
          <mxGeometry x="559.2" y="1270" width="120" height="20" as="geometry" />
        </mxCell>
        <mxCell id="9Ihj8CTsWYgidSoW0jgp-40" value="External Systems" style="text;html=1;align=center;verticalAlign=middle;resizable=0;points=[];autosize=1;strokeColor=none;fillColor=none;" vertex="1" parent="1">
          <mxGeometry x="40" y="930" width="110" height="20" as="geometry" />
        </mxCell>
      </root>
    </mxGraphModel>
  </diagram>
</mxfile>
